<svg width="601" height="147" viewBox="0 0 601 147" fill="none" xmlns="http://www.w3.org/2000/svg">
<path d="M152.7 99V29H199.2V41.1H167.7V58.1H192.5V69.8H167.7V99H152.7ZM198.848 99V27H213.848V99H198.848ZM234.075 100.2C229.875 100.2 226.375 99.5333 223.575 98.2C220.842 96.8667 218.808 95.0667 217.475 92.8C216.208 90.4667 215.575 87.9 215.575 85.1C215.575 82.1 216.308 79.4667 217.775 77.2C219.308 74.8667 221.675 73.0333 224.875 71.7C228.075 70.3 232.108 69.6 236.975 69.6H249.175C249.175 67.3333 248.875 65.4667 248.275 64C247.742 62.5333 246.842 61.4333 245.575 60.7C244.308 59.9667 242.575 59.6 240.375 59.6C238.042 59.6 236.075 60.0667 234.475 61C232.875 61.9333 231.875 63.4 231.475 65.4H217.075C217.408 61.8 218.575 58.6667 220.575 56C222.642 53.3333 225.375 51.2333 228.775 49.7C232.175 48.1667 236.075 47.4 240.475 47.4C245.275 47.4 249.442 48.2 252.975 49.8C256.508 51.3333 259.242 53.6 261.175 56.6C263.175 59.6 264.175 63.3333 264.175 67.8V99H251.675L249.875 91.7C249.142 92.9667 248.275 94.1333 247.275 95.2C246.275 96.2 245.108 97.1 243.775 97.9C242.442 98.6333 240.975 99.2 239.375 99.6C237.775 100 236.008 100.2 234.075 100.2ZM237.775 88.8C239.375 88.8 240.775 88.5333 241.975 88C243.175 87.4667 244.208 86.7333 245.075 85.8C245.942 84.8667 246.642 83.8 247.175 82.6C247.775 81.3333 248.208 79.9667 248.475 78.5V78.4H238.775C237.108 78.4 235.708 78.6333 234.575 79.1C233.508 79.5 232.708 80.1 232.175 80.9C231.642 81.7 231.375 82.6333 231.375 83.7C231.375 84.8333 231.642 85.8 232.175 86.6C232.775 87.3333 233.542 87.9 234.475 88.3C235.475 88.6333 236.575 88.8 237.775 88.8ZM287.641 100.2C282.907 100.2 278.807 99.4667 275.341 98C271.941 96.4667 269.241 94.4 267.241 91.8C265.307 89.2 264.207 86.2667 263.941 83H278.841C279.107 84.1333 279.574 85.1667 280.241 86.1C280.974 86.9667 281.941 87.6667 283.141 88.2C284.407 88.6667 285.807 88.9 287.341 88.9C289.007 88.9 290.341 88.7 291.341 88.3C292.407 87.8333 293.207 87.2333 293.741 86.5C294.274 85.7667 294.541 85 294.541 84.2C294.541 82.9333 294.141 81.9667 293.341 81.3C292.607 80.6333 291.507 80.1 290.041 79.7C288.574 79.2333 286.807 78.8 284.741 78.4C282.341 77.8667 279.941 77.2667 277.541 76.6C275.207 75.8667 273.107 74.9667 271.241 73.9C269.441 72.8333 267.974 71.4667 266.841 69.8C265.774 68.0667 265.241 65.9667 265.241 63.5C265.241 60.5 266.074 57.8 267.741 55.4C269.407 52.9333 271.807 51 274.941 49.6C278.074 48.1333 281.874 47.4 286.341 47.4C292.674 47.4 297.641 48.8 301.241 51.6C304.841 54.4 306.974 58.1667 307.641 62.9H293.641C293.241 61.5667 292.407 60.5667 291.141 59.9C289.874 59.1667 288.274 58.8 286.341 58.8C284.141 58.8 282.474 59.1667 281.341 59.9C280.207 60.6333 279.641 61.6 279.641 62.8C279.641 63.6 280.007 64.3333 280.741 65C281.541 65.6 282.674 66.1333 284.141 66.6C285.607 67.0667 287.407 67.5333 289.541 68C293.607 68.8667 297.107 69.8 300.041 70.8C303.041 71.8 305.374 73.2667 307.041 75.2C308.707 77.0667 309.507 79.8 309.441 83.4C309.507 86.6667 308.641 89.5667 306.841 92.1C305.107 94.6333 302.607 96.6333 299.341 98.1C296.074 99.5 292.174 100.2 287.641 100.2ZM310.645 99V27H325.645V55.8C327.245 53.2667 329.411 51.2333 332.145 49.7C334.878 48.1667 338.078 47.4 341.745 47.4C346.011 47.4 349.578 48.3 352.445 50.1C355.311 51.9 357.478 54.5333 358.945 58C360.411 61.4 361.145 65.5333 361.145 70.4V99H346.245V71.8C346.245 68.0667 345.445 65.1667 343.845 63.1C342.311 61.0333 339.845 60 336.445 60C334.445 60 332.611 60.5 330.945 61.5C329.278 62.5 327.978 63.9333 327.045 65.8C326.111 67.6 325.645 69.7667 325.645 72.3V99H310.645ZM388.533 100.2C383.333 100.2 378.733 99.0667 374.733 96.8C370.799 94.5333 367.699 91.4333 365.433 87.5C363.233 83.5667 362.133 79.0667 362.133 74C362.133 68.8 363.233 64.2333 365.433 60.3C367.699 56.3 370.799 53.1667 374.733 50.9C378.733 48.5667 383.333 47.4 388.533 47.4C395.133 47.4 400.666 49.1333 405.133 52.6C409.666 56.0667 412.533 60.9 413.733 67.1H397.833C397.233 64.9667 396.099 63.3 394.433 62.1C392.766 60.9 390.766 60.3 388.433 60.3C386.233 60.3 384.299 60.8667 382.633 62C381.033 63.0667 379.766 64.6333 378.833 66.7C377.899 68.7 377.433 71.0667 377.433 73.8C377.433 75.8667 377.699 77.7333 378.233 79.4C378.766 81.0667 379.499 82.5 380.433 83.7C381.433 84.9 382.599 85.8333 383.933 86.5C385.266 87.1 386.766 87.4 388.433 87.4C390.033 87.4 391.433 87.1333 392.633 86.6C393.899 86.0667 394.966 85.3 395.833 84.3C396.766 83.3 397.433 82.0667 397.833 80.6H413.733C412.533 86.6 409.666 91.3667 405.133 94.9C400.599 98.4333 395.066 100.2 388.533 100.2ZM432.552 100.2C428.352 100.2 424.852 99.5333 422.052 98.2C419.318 96.8667 417.285 95.0667 415.952 92.8C414.685 90.4667 414.052 87.9 414.052 85.1C414.052 82.1 414.785 79.4667 416.252 77.2C417.785 74.8667 420.152 73.0333 423.352 71.7C426.552 70.3 430.585 69.6 435.452 69.6H447.652C447.652 67.3333 447.352 65.4667 446.752 64C446.218 62.5333 445.318 61.4333 444.052 60.7C442.785 59.9667 441.052 59.6 438.852 59.6C436.518 59.6 434.552 60.0667 432.952 61C431.352 61.9333 430.352 63.4 429.952 65.4H415.552C415.885 61.8 417.052 58.6667 419.052 56C421.118 53.3333 423.852 51.2333 427.252 49.7C430.652 48.1667 434.552 47.4 438.952 47.4C443.752 47.4 447.918 48.2 451.452 49.8C454.985 51.3333 457.718 53.6 459.652 56.6C461.652 59.6 462.652 63.3333 462.652 67.8V99H450.152L448.352 91.7C447.618 92.9667 446.752 94.1333 445.752 95.2C444.752 96.2 443.585 97.1 442.252 97.9C440.918 98.6333 439.452 99.2 437.852 99.6C436.252 100 434.485 100.2 432.552 100.2ZM436.252 88.8C437.852 88.8 439.252 88.5333 440.452 88C441.652 87.4667 442.685 86.7333 443.552 85.8C444.418 84.8667 445.118 83.8 445.652 82.6C446.252 81.3333 446.685 79.9667 446.952 78.5V78.4H437.252C435.585 78.4 434.185 78.6333 433.052 79.1C431.985 79.5 431.185 80.1 430.652 80.9C430.118 81.7 429.852 82.6333 429.852 83.7C429.852 84.8333 430.118 85.8 430.652 86.6C431.252 87.3333 432.018 87.9 432.952 88.3C433.952 88.6333 435.052 88.8 436.252 88.8ZM465.117 99V48.6H478.417L479.817 57.8C481.151 55.6667 482.717 53.8333 484.517 52.3C486.317 50.7667 488.384 49.5667 490.717 48.7C493.117 47.8333 495.684 47.4 498.417 47.4V63.3H493.417C491.417 63.3 489.584 63.5333 487.917 64C486.317 64.4 484.917 65.1 483.717 66.1C482.584 67.1 481.684 68.4667 481.017 70.2C480.417 71.8667 480.117 73.9667 480.117 76.5V99H465.117ZM519.119 100.2C514.652 100.2 510.585 99.0667 506.919 96.8C503.319 94.5333 500.452 91.4333 498.319 87.5C496.252 83.5 495.219 78.9667 495.219 73.9C495.219 68.7667 496.285 64.2333 498.419 60.3C500.552 56.3 503.452 53.1667 507.119 50.9C510.852 48.5667 514.985 47.4 519.519 47.4C522.985 47.4 526.019 48.0333 528.619 49.3C531.219 50.5 533.352 52.2667 535.019 54.6V27H550.019V99H536.719L535.019 92.5C534.019 93.9 532.785 95.2 531.319 96.4C529.919 97.5333 528.219 98.4333 526.219 99.1C524.219 99.8333 521.852 100.2 519.119 100.2ZM523.019 87.1C525.485 87.1 527.652 86.5333 529.519 85.4C531.452 84.2667 532.919 82.7 533.919 80.7C534.985 78.7 535.519 76.4 535.519 73.8C535.519 71.2 534.985 68.9 533.919 66.9C532.919 64.9 531.452 63.3333 529.519 62.2C527.652 61.0667 525.485 60.5 523.019 60.5C520.619 60.5 518.452 61.0667 516.519 62.2C514.652 63.3333 513.185 64.9 512.119 66.9C511.052 68.9 510.519 71.1667 510.519 73.7C510.519 76.3 511.052 78.6333 512.119 80.7C513.185 82.7 514.652 84.2667 516.519 85.4C518.452 86.5333 520.619 87.1 523.019 87.1ZM574.027 100.2C569.294 100.2 565.194 99.4667 561.727 98C558.327 96.4667 555.627 94.4 553.627 91.8C551.694 89.2 550.594 86.2667 550.327 83H565.227C565.494 84.1333 565.961 85.1667 566.627 86.1C567.361 86.9667 568.327 87.6667 569.527 88.2C570.794 88.6667 572.194 88.9 573.727 88.9C575.394 88.9 576.727 88.7 577.727 88.3C578.794 87.8333 579.594 87.2333 580.127 86.5C580.661 85.7667 580.927 85 580.927 84.2C580.927 82.9333 580.527 81.9667 579.727 81.3C578.994 80.6333 577.894 80.1 576.427 79.7C574.961 79.2333 573.194 78.8 571.127 78.4C568.727 77.8667 566.327 77.2667 563.927 76.6C561.594 75.8667 559.494 74.9667 557.627 73.9C555.827 72.8333 554.361 71.4667 553.227 69.8C552.161 68.0667 551.627 65.9667 551.627 63.5C551.627 60.5 552.461 57.8 554.127 55.4C555.794 52.9333 558.194 51 561.327 49.6C564.461 48.1333 568.261 47.4 572.727 47.4C579.061 47.4 584.027 48.8 587.627 51.6C591.227 54.4 593.361 58.1667 594.027 62.9H580.027C579.627 61.5667 578.794 60.5667 577.527 59.9C576.261 59.1667 574.661 58.8 572.727 58.8C570.527 58.8 568.861 59.1667 567.727 59.9C566.594 60.6333 566.027 61.6 566.027 62.8C566.027 63.6 566.394 64.3333 567.127 65C567.927 65.6 569.061 66.1333 570.527 66.6C571.994 67.0667 573.794 67.5333 575.927 68C579.994 68.8667 583.494 69.8 586.427 70.8C589.427 71.8 591.761 73.2667 593.427 75.2C595.094 77.0667 595.894 79.8 595.827 83.4C595.894 86.6667 595.027 89.5667 593.227 92.1C591.494 94.6333 588.994 96.6333 585.727 98.1C582.461 99.5 578.561 100.2 574.027 100.2Z" fill="black"/>
<path d="M150.1 104.4C150.167 104.733 149.967 104.967 149.5 105.1C149.1 105.233 148.867 105.2 148.8 105L148.6 102.3L149.5 101.8C149.5 101.667 149.3 101.533 148.9 101.4C148.567 101.333 148.4 101.467 148.4 101.8C148.4 101.333 148.267 100.4 148 99C147.8 97.6667 147.567 96.2667 147.3 94.8C147.1 93.3333 147 92.2 147 91.4C147 90.9333 147.033 90.6667 147.1 90.6L146.1 90.3L146.4 88.8C145.933 89.0667 145.633 88.8667 145.5 88.2C145.367 87.5333 145.233 86.8333 145.1 86.1C144.967 85.3667 144.667 85.0667 144.2 85.2C144.133 84.2667 143.767 83.4667 143.1 82.8C142.5 82.0667 142.1 81.2667 141.9 80.4L142.1 80.5H142.2C142.067 80.3667 141.833 80.2 141.5 80C141.233 79.8 141.133 79.5333 141.2 79.2L139.5 78.8L139.8 78.6L137.8 77.2H137.7C137.567 77.2 137.4 77.2667 137.2 77.4C137.067 77.4667 136.933 77.5 136.8 77.5C136.467 77.5 136.3 77.2 136.3 76.6H134.1L133.9 75.8C133.633 75.8667 133.367 75.9333 133.1 76C132.9 76 132.667 76 132.4 76C131.6 76 130.8 75.9 130 75.7C129.2 75.4333 128.433 75.2 127.7 75L127.3 75.6L124.4 75.1L125.1 74.8L124.4 74.6L125.5 71.4L126.6 70.6V69.6L127.7 68.5L128.2 68.8L128 68H128.2L129.7 68.4C129.833 68.2667 129.7 68.1667 129.3 68.1C128.9 68.0333 128.8 67.9333 129 67.8C129.067 67.8 129.133 67.8 129.2 67.8C129.267 67.7333 129.367 67.7 129.5 67.7C129.833 67.7 130.233 67.7333 130.7 67.8C131.233 67.8667 131.567 67.9333 131.7 68L132.9 67.2C133.833 67.2667 135.167 67.1667 136.9 66.9C138.633 66.5667 140.133 66.4 141.4 66.4C142.333 66.4 142.933 66.5333 143.2 66.8C143.733 66.4667 144.267 66.2667 144.8 66.2C145.333 66.0667 145.9 66 146.5 66H148.2C148.6 66 149 66 149.4 66C149.8 65.9333 150.2 65.8 150.6 65.6C150.6 64.7333 150.633 63.9 150.7 63.1C150.767 62.2333 150.733 61.4 150.6 60.6L151.3 59.9V58.6C150.967 58.6 150.833 58.5 150.9 58.3C151.033 58.0333 151.233 57.9333 151.5 58L151 56.2L151.7 55.8C151.5 54.8667 151.4 54 151.4 53.2C151.4 52.2667 151.467 51.3667 151.6 50.5C151.8 49.5667 151.933 48.6 152 47.6C151.867 47.6 151.8 47.5333 151.8 47.4C151.8 47.2667 151.867 47.1 152 46.9C152.133 46.7 152.233 46.6 152.3 46.6L151.8 45L152.5 44.5V40.3L153.2 39.6L152 37.9C151.933 37.9 151.5 37.9333 150.7 38C149.967 38.0667 149.767 38.3333 150.1 38.8L148.1 39.1L147.8 38.4L146.3 39.8C146.167 39.4667 146.1 39.3 146.1 39.3V40C145.233 39.9333 144.467 40.1 143.8 40.5C143.133 40.9 142.433 41.1667 141.7 41.3C141.833 41.1667 141.7 41.1667 141.3 41.3C140.967 41.3667 141.033 41.4667 141.5 41.6C140.633 41.6667 139.767 41.8 138.9 42C138.033 42.1333 137.267 42.4667 136.6 43L137.1 43.2H135.6L135.1 42.5L134.9 43.8C133.5 44.2 132.433 44.6333 131.7 45.1C130.967 45.5 130.433 45.7 130.1 45.7C129.833 45.7 129.7 45.4 129.7 44.8C129.7 44.2 129.8 43 130 41.2C130.533 40.8667 130.967 40.3 131.3 39.5C131.7 38.7 131.967 38.0667 132.1 37.6C132.233 37.6667 132.367 37.6 132.5 37.4C132.7 37.1333 132.733 36.9333 132.6 36.8L134.3 36.9V36.4C135.833 36.2667 137.4 35.9 139 35.3C140.6 34.7 142.167 34.2667 143.7 34L144.4 34.4C144.867 33.8 145.7 33.4 146.9 33.2C148.1 33 149.367 32.8333 150.7 32.7C152.033 32.5 153.1 32.2667 153.9 32C153.833 31.7333 153.8 31.5 153.8 31.3C153.8 31.0333 153.8 30.7667 153.8 30.5C153.8 29.9667 153.8 29.4333 153.8 28.9C153.867 28.3 153.933 27.7 154 27.1C153.933 27.0333 153.867 27.0333 153.8 27.1C153.8 27.1667 153.833 27.2333 153.9 27.3L152.7 29L152.5 29.2C152.433 29.2 152.333 29.2333 152.2 29.3C152.133 29.3667 152.067 29.3667 152 29.3C151.933 28.9667 151.967 28.4333 152.1 27.7C152.233 26.9 152.4 26.1333 152.6 25.4C152.8 24.6 152.933 24.0667 153 23.8H153.7L154 20.4H154.7C154.767 19.3333 155.167 18.2 155.9 17C156.633 15.7333 157.3 14.6667 157.9 13.8L160.1 14C160.367 14 160.533 14.0333 160.6 14.1V15L162.1 15.1L163.5 17.2C163.5 17.8667 163.4 18.5333 163.2 19.2C163.067 19.8667 162.867 20.5333 162.6 21.2C162.467 21.1333 162.3 21.1 162.1 21.1C161.9 21.1 161.8 21.2 161.8 21.4C161.8 21.5333 161.833 21.7667 161.9 22.1C162.033 22.3667 162.1 22.6 162.1 22.8C162.1 23.2 161.833 23.4 161.3 23.4L161.6 24.6L161.1 24.8L161.6 25.1L160.8 25.4L160.4 30.8C160.867 30.8 161.6 30.7333 162.6 30.6C163.667 30.4667 164.8 30.3333 166 30.2C167.2 30 168.267 29.8667 169.2 29.8C170.133 29.7333 170.7 29.7333 170.9 29.8L171.1 30.2L171.6 29.5C171.867 29.6333 172.5 29.7 173.5 29.7C174.567 29.7 175.867 29.6667 177.4 29.6C178.933 29.4667 180.333 29.3667 181.6 29.3C182.933 29.2333 183.833 29.2 184.3 29.2C184.167 29.7333 184.333 29.9667 184.8 29.9C185.267 29.8333 185.833 29.7 186.5 29.5C187.233 29.2333 187.833 29.1333 188.3 29.2C189.967 29.4 191.633 29.6 193.3 29.8C194.967 29.9333 196.633 30.0667 198.3 30.2C198.033 30.4 198.133 30.5667 198.6 30.7C199.067 30.8333 199.6 30.9333 200.2 31C200.867 31.0667 201.3 31.1333 201.5 31.2L201.9 32.4H201.6C201.2 32.4 200.8 32.3667 200.4 32.3C200 32.1667 199.633 32.0667 199.3 32C199.167 32.1333 198.6 32.2 197.6 32.2C196.533 32.2 195.2 32.1667 193.6 32.1C192 31.9667 190.533 31.8667 189.2 31.8C187.867 31.6667 187 31.6333 186.6 31.7L186.3 31.2C186.1 31.4667 185.767 31.6667 185.3 31.8C184.833 31.9333 184.333 32 183.8 32C183.2 32 182.6 31.9667 182 31.9C181.467 31.8333 181.033 31.7667 180.7 31.7L178.9 32.5C178.833 32.5 178.633 32.4333 178.3 32.3C177.967 32.1667 177.833 32.2 177.9 32.4H175.5V33C175.367 32.9333 175.1 32.9 174.7 32.9C173.633 32.9 172.167 33.1 170.3 33.5C168.5 33.8333 167.067 34 166 34C165.733 34.3333 164.933 34.6 163.6 34.8C162.267 34.9333 161.267 35.0667 160.6 35.2L160.8 35.6H160.6C160.067 36.2667 159.567 37.5333 159.1 39.4C158.7 41.2667 158.333 43.3667 158 45.7C157.667 47.9667 157.4 50.1333 157.2 52.2C157.067 54.2 156.967 55.7 156.9 56.7L156.7 60.8L156.4 62.6V65.6C157.8 65.4667 159.533 65.3 161.6 65.1C163.667 64.8333 165.633 64.7 167.5 64.7C168.433 64.7 169.267 64.7333 170 64.8C170.8 64.8667 171.5 65.0333 172.1 65.3V65.2C172.633 65.1333 173.2 65.1 173.8 65.1C174.4 65.0333 175 65 175.6 65C176.267 65 177.233 65.0667 178.5 65.2C179.833 65.2667 180.6 65.3 180.8 65.3C180.333 65.3 179.967 65.2667 179.7 65.2L180.5 65.3C180.567 65.3 180.667 65.3 180.8 65.3C181.6 65.4333 182.567 65.5333 183.7 65.6C184.833 65.6667 185.8 65.8667 186.6 66.2C187.467 66.4667 187.933 66.9 188 67.5C187.933 67.7 187.8 67.8 187.6 67.8C187.467 67.8 187.3 67.7 187.1 67.5C186.967 67.3 186.867 67.2 186.8 67.2V67.8L186.6 67.2C186.333 67.4 185.733 67.5667 184.8 67.7C183.933 67.7667 182.933 67.8 181.8 67.8C179.933 67.8 178 67.7333 176 67.6C174.067 67.4 172.767 67.2667 172.1 67.2L171.4 67.8H168.1L168.7 68C166.433 67.9333 164.233 68.1 162.1 68.5C159.967 68.9 157.833 69.2667 155.7 69.6L155.4 72.4C155.267 72.0667 155.167 72.0333 155.1 72.3C155.1 72.5 155.1 72.7333 155.1 73C155.167 73.2 155.267 73.1333 155.4 72.8L155 75.1L154.5 75.6C154.567 75.8667 154.633 76.1333 154.7 76.4C154.833 76.6667 155 76.8 155.2 76.8C155.067 78.6667 154.9 80.6 154.7 82.6C154.5 84.5333 154.333 86.4667 154.2 88.4L153.7 88.6L154.2 88.8L153.7 89.2L154.2 89.4C153.867 89.8 153.7 90.3 153.7 90.9C153.7 91.2333 153.733 91.6 153.8 92C153.867 92.4 153.933 92.8 154 93.2C153.8 93 153.667 92.9 153.6 92.9C153.4 92.9 153.3 93.0333 153.3 93.3C153.3 93.7667 153.533 94.1333 154 94.4L153.5 96.2C153.7 96.2 153.8 96.3 153.8 96.5C153.8 96.9667 153.6 97.2667 153.2 97.4L153.7 99.2H153.2V100.8L152.3 102H152.7C152.767 102.067 152.767 102.133 152.7 102.2C152.633 102.333 152.567 102.367 152.5 102.3C152.3 102.833 151.967 103.267 151.5 103.6C151.033 104 150.567 104.267 150.1 104.4ZM150.3 93.2C150.367 92.6 150.467 92.0667 150.6 91.6C150.733 91.1333 150.867 90.6 151 90H150.5L150.1 89.6C150.3 89.0667 150.4 88.5667 150.4 88.1C150.4 87.6333 150.3 87.2 150.1 86.8L150.5 86.2L150.2 86L150.1 85.8C150.233 85.7333 150.3 85.3667 150.3 84.7V83.5C150.3 83.1667 150.3 82.8667 150.3 82.6C150.367 82.3333 150.433 82.1333 150.5 82L150.2 81.8L150.1 81.6H150.5C150.167 80.2667 150 78.9667 150 77.7C150 76.7667 150.1 75.8 150.3 74.8H150.8C150.733 74.2667 150.633 73.7667 150.5 73.3C150.367 72.7667 150.3 72.2667 150.3 71.8H150.8C150.733 71.2667 150.5 70.8 150.1 70.4C149.833 70.6 149.4 70.7 148.8 70.7C148.467 70.7 148.133 70.6 147.8 70.4H147.6C147.067 71 146.5 71.3 145.9 71.3C145.567 71.3 145.233 71.2667 144.9 71.2C144.633 71.0667 144.367 71.0667 144.1 71.2C143.833 71.3333 143.733 71.4333 143.8 71.5C143.867 71.5 143.667 71.5333 143.2 71.6C143.133 71.2667 143.1 71.1 143.1 71.1C143.167 71.1 143.1 71.0667 142.9 71V71.4C142.633 71.6 142.533 71.7333 142.6 71.8C142.667 71.8 142.467 71.8333 142 71.9C142 71.9 141.967 71.7667 141.9 71.5C141.833 71.2333 141.767 71.2667 141.7 71.6C141.233 71.8667 140.533 72.1333 139.6 72.4C138.667 72.6 137.967 72.6667 137.5 72.6C137.433 73 137.367 73.1333 137.3 73C137.233 72.8667 137 72.9333 136.6 73.2C136.867 73.3333 136.967 73.4 136.9 73.4C136.833 73.4 136.733 73.5333 136.6 73.8C137.133 73.8667 137.633 73.9667 138.1 74.1C138.567 74.1667 139.033 74.3333 139.5 74.6C139.367 74.8 139.3 75.1333 139.3 75.6L140.7 75.4C140.567 75.8 140.6 76.1333 140.8 76.4L141 76.1C141.2 76.2333 141.367 76.3333 141.5 76.4C141.7 76.4 141.867 76.4667 142 76.6C141.933 76.6667 141.9 76.8 141.9 77C141.9 77.1333 141.9 77.2333 141.9 77.3C142.033 77.3667 142.2 77.4 142.4 77.4C142.667 77.4 142.867 77.4667 143 77.6L142.9 78.2C143.3 78.2667 143.533 78.3667 143.6 78.5C143.733 78.6333 143.933 78.8667 144.2 79.2L143.7 80.4C143.967 80.4667 144.233 80.5667 144.5 80.7C144.833 80.7667 145.133 80.8667 145.4 81C145.667 81.6667 145.967 82.2333 146.3 82.7C146.633 83.1667 146.833 83.8667 146.9 84.8C146.567 84.8 146.367 84.8333 146.3 84.9C146.833 85.0333 147.3 85.4 147.7 86C148.167 86.5333 148.3 87.1333 148.1 87.8L148.4 88.1L148.1 88.6C148.833 89.2667 149.267 89.9 149.4 90.5C149.533 91.0333 149.6 91.5333 149.6 92C149.667 92.4 149.9 92.8 150.3 93.2Z" fill="url(#paint0_linear_1610_1047)"/>
<path d="M25.3 117.8L23.3 118.4L21.3 117.2H20.1C18.6333 116.333 17.7 115.333 17.3 114.2C16.9 113.133 16.6333 112 16.5 110.8C16.3667 109.667 15.9333 108.6 15.2 107.6C15.4 107.6 15.5 107.5 15.5 107.3C15.5 107.1 15.3667 106.767 15.1 106.3C14.8333 105.9 14.7 105.667 14.7 105.6L15.3 105.2C14.5667 103.667 14.2 102.1 14.2 100.5C14.2 99.9 14.2333 99.2667 14.3 98.6C14.4333 97.9333 14.5667 97.2333 14.7 96.5C14.5 95.9 14.4 95.2333 14.4 94.5C14.4 93.4333 14.5667 92.4667 14.9 91.6C14.7667 91.6 14.6667 91.4667 14.6 91.2C14.5333 90.9333 14.5333 90.7667 14.6 90.7H15.3L14.7 87.5L15.6 87.2C15.2 86.7333 15 86.0333 15 85.1C15 84.3 15.1 83.6 15.3 83L14.6 82.6L12.2 83C12 82.7333 11.8333 82.6 11.7 82.6C11.4333 82.6 11.1667 82.7333 10.9 83C10.7 83.2 10.4333 83.3667 10.1 83.5C9.23333 83.9 8.33333 84.1 7.4 84.1C6.33333 84.1 5.26667 83.9 4.2 83.5C3.2 83.1 2.23333 82.6667 1.3 82.2C1.03333 81.6667 0.9 81.1667 0.9 80.7C0.9 80.2333 1 79.8 1.2 79.4L3.5 78.8V78.4L6.8 77.8V77.6C6.8 77.2667 7.06667 77.1 7.6 77.1C7.93333 77.1 8.26667 77.1333 8.6 77.2C8.93333 77.2667 9.23333 77.3 9.5 77.3L10.8 76.5L11.2 76.9L9.1 78.8C8.96667 78.8667 8.9 78.9667 8.9 79.1C8.9 79.1667 9 79.2 9.2 79.2C9.46667 79.2 9.76667 79.1667 10.1 79.1C10.5 79.0333 10.8 79 11 79L11.6 79.4V78.8L15.6 77.3L16.9 72.9C16.7 72.9 16.6 72.7667 16.6 72.5C16.6667 72.1667 16.7667 72.0667 16.9 72.2C17.0333 69.3333 17.4333 66.6 18.1 64L17.7 63.9L18.1 61.4L18.3 61.5L18.5 61.2L19.8 55L19.4 54.8L19.8 52.6L20.8 51.8C20.4667 51.3333 20.3 50.8 20.3 50.2C20.3 49.3333 20.4333 48.4 20.7 47.4C20.9667 46.3333 21.1333 45.5333 21.2 45C21.6667 45.1333 21.9333 44.9333 22 44.4C22.0667 43.8667 22.0667 43.2667 22 42.6C22 41.9333 22 41.5 22 41.3L22.5 41V38.8H22L22.1 39.8L20.1 42.2H20.3C20.5 42.2 20.6 42.3333 20.6 42.6C20.6 43.0667 20.4333 43.4 20.1 43.6L18.8 43.7C18.8 42.7 19.0667 41.5333 19.6 40.2C20.1333 38.8667 20.7333 37.5667 21.4 36.3C22.1333 35.0333 22.7667 33.9667 23.3 33.1C23.5667 33.3667 23.7 33.2667 23.7 32.8C23.7 32.3333 23.5667 32.3 23.3 32.7C23.7667 31.8333 24.3333 30.9667 25 30.1C25.6667 29.1667 26.4333 28.4667 27.3 28C27.9667 28 28.6 28.1333 29.2 28.4C29.8667 28.6667 30.4333 28.9333 30.9 29.2V29.3C30.9 29.3667 30.8667 29.5 30.8 29.7C30.7333 29.8333 30.8333 30.0333 31.1 30.3L32.2 30.7C32.1333 30.7667 32.1 30.8667 32.1 31C32.1 31.2 32.2667 31.3333 32.6 31.4C33 31.4667 33.2667 31.5333 33.4 31.6L33.1 33.5C32.7667 33.5667 32.4 33.8333 32 34.3C31.6667 34.7 31.8333 34.8667 32.5 34.8L30.9 35.4L31.1 37C30.7 37 30.5 37.3667 30.5 38.1C30.5 38.7667 30.2667 39.1333 29.8 39.2L29.5 40.6L29 41L27.3 46.9L26.4 47C26.3333 47.0667 26.4 47.2333 26.6 47.5C26.8667 47.7 26.9667 47.8667 26.9 48C26.9 48.1333 26.7333 48.2333 26.4 48.3C26.1333 48.3667 26 48.4333 26 48.5L26.5 49.5L25.7 52.1L25 52.2C24.9333 53.0667 24.7333 53.7333 24.4 54.2C24.1333 54.6 24.3333 54.8667 25 55L24.6 56.7H24V57C24 57.4 24.0667 57.8667 24.2 58.4C24.3333 58.8667 24.1 58.9667 23.5 58.7L23.8 60C23.7333 60.0667 23.6333 60.1 23.5 60.1C23.3667 60.1 23.2667 60.0333 23.2 59.9C23.1333 59.7 23.0333 59.5667 22.9 59.5L22.7 59.6L23.5 61L23.1 61.2L23.3 62.3C23.0333 62.4333 22.8333 62.9667 22.7 63.9C22.5667 64.7667 22.5667 65.2667 22.7 65.4L22 66.6L21.6 67.4L22.1 68.6L21.6 69.2C21.7333 69.4 21.8 69.6333 21.8 69.9C21.8 70.1 21.8 70.3333 21.8 70.6C21.8 71.2 21.7333 71.8333 21.6 72.5C21.5333 73.1 21.5333 73.7333 21.6 74.4L20.5 74.2V74.5H21.7L23.8 73.4L24.6 73C25.3333 72.9333 26.1 72.6667 26.9 72.2C27.7 71.7333 28.4 71.2667 29 70.8H30.7C30.7667 70.8 30.8 70.8 30.8 70.8C30.8 70.7333 30.8 70.7 30.8 70.7C30.8 70.5667 30.6667 70.5 30.4 70.5C30.1333 70.4333 29.9667 70.4 29.9 70.4C30.3 70.0667 30.8333 69.7667 31.5 69.5C32.1667 69.1667 32.8 69 33.4 69L33.8 68.2L39.1 65.2C39.2333 65.3333 39.2333 65.5667 39.1 65.9L40.3 64.3L42.4 63.5L42.5 62.8C43.2333 62.0667 44.0333 61.6333 44.9 61.5C45.7667 61.3 46.5333 60.8667 47.2 60.2C47.2 59.7333 47.4333 59.3333 47.9 59C48.4333 58.6667 48.8333 58.7333 49.1 59.2C49.4333 58.0667 50.1 57.2 51.1 56.6C52.1 56 52.9333 55.2667 53.6 54.4C53.9333 54.7333 54.1333 54.9 54.2 54.9C54.4667 54.9 54.6333 54.6667 54.7 54.2C54.7667 53.7333 54.9 53.2667 55.1 52.8C55.1667 52.8 55.2 52.8333 55.2 52.9C55.2667 52.9 55.3333 52.9 55.4 52.9C55.8 52.9 56.1667 52.7667 56.5 52.5C56.9 52.1667 57.0333 51.9 56.9 51.7L58.1 49.6H58.8L60.6 47.2C60.4 47.0667 60.3 46.9667 60.3 46.9C60.3 46.7667 60.4 46.6 60.6 46.4C60.8 46.2 60.9333 46.1 61 46.1V46.2C61.3333 46.2 61.5667 45.7 61.7 44.7C61.9 43.7 61.9667 43.0667 61.9 42.8L62.9 42L62.1 38.8L62.7 38.7H62.1L61 36.1L61.4 35.4L59.1 33.6H58.1L55.1 31.1C54.4333 30.5 53.4 30.1 52 29.9C50.6 29.6333 49.4333 29.4 48.5 29.2V28.7C48.1 28.8333 47.8 28.9 47.6 28.9C47.0667 28.9 46.5333 28.8 46 28.6C45.4667 28.3333 44.9 28.1 44.3 27.9V28.4C43.8333 28 43.2333 27.7667 42.5 27.7C41.7667 27.5667 41.1333 27.5333 40.6 27.6V27L38.6 27.5L37.8 26.6L35.9 27.2L36.1 27L35.7 26.8H33.5L33.9 26.6C32.7667 26.6667 31.6333 26.6667 30.5 26.6C29.3667 26.5333 28.2333 26.5 27.1 26.5C25.9 26.5 24.6333 26.6 23.3 26.8L23.1 26.2C22.8333 26.6667 22.4333 26.9 21.9 26.9C21.3667 26.9 20.8667 26.6667 20.4 26.2L19.8 26.8L15.6 26.6V27.2H6.8C6.73333 26.8667 7.03333 26.3667 7.7 25.7C8.43333 25.0333 8.9 24.6 9.1 24.4C9.23333 24.2667 9.43333 24.2 9.7 24.2C10.1 24.2 10.3 24.3667 10.3 24.7C10.3 24.3667 10.5 24.1 10.9 23.9C11.3667 23.7 11.8 23.6 12.2 23.6C12.1333 23.4667 12.1333 23.3 12.2 23.1C12.3333 22.9 12.4667 22.9 12.6 23.1C13.0667 22.7 13.6333 22.4667 14.3 22.4C15.0333 22.2667 15.7333 22.2 16.4 22.2C16.6 21.8 16.9667 21.5333 17.5 21.4C18.1 21.2 18.5333 21.0667 18.8 21C19 21.6667 19.1 21.9 19.1 21.7C19.1 21.5 19.1 21.2667 19.1 21L24.2 20.6L24.8 21.2L26.4 21C26.3333 21.0667 26.3 21.1333 26.3 21.2C26.3 21.3333 26.4667 21.4 26.8 21.4C27.1333 21.4 27.5 21.3667 27.9 21.3C28.3 21.2333 28.5333 21.2 28.6 21.2L29 20.6L32.8 21C33 21.4667 33.2333 21.7 33.5 21.7C33.8333 21.7 34.1 21.5333 34.3 21.2L39.5 22.2C39.4333 22.2667 39.4 22.4 39.4 22.6C39.4 22.9333 39.6333 23.1333 40.1 23.2C40.6333 23.2 41.0333 23.2 41.3 23.2C41.2333 23.2667 41.2 23.3333 41.2 23.4C41.2 23.6 41.3667 23.7 41.7 23.7C41.9 23.7 42.1 23.6333 42.3 23.5C42.5 23.3667 42.5333 23.2333 42.4 23.1C42.8667 23.4333 43.5 23.6333 44.3 23.7C45.1 23.7667 45.8 23.8 46.4 23.8L46.5 24.4L48.4 24.6L48.5 25.4C48.7 25.2667 48.9 25.2 49.1 25.2C49.3667 25.2 49.6 25.2 49.8 25.2C50.3333 25.2 50.8 25.3 51.2 25.5C51.6667 25.7 51.9667 26.0667 52.1 26.6L57.1 28L57.7 29L59.1 29.4L58.9 29.6L61 30.3C61 30.3667 60.9667 30.4333 60.9 30.5C60.9 30.5 60.9 30.5333 60.9 30.6C60.9 30.7333 60.9333 30.8667 61 31C61.0667 31.1333 61.1 31.2667 61.1 31.4C61.3667 31.0667 61.7333 31.1 62.2 31.5C62.7333 31.9 63.2667 32.4667 63.8 33.2C64.4 33.9333 64.9333 34.6667 65.4 35.4C65.8667 36.0667 66.1333 36.5333 66.2 36.8C66.4 37.6 66.5 38.5 66.5 39.5C66.5 41.3 66.1667 43.2 65.5 45.2C64.9 47.2 64.0333 48.6667 62.9 49.6C62.9667 49.6 63 49.6333 63 49.7C63.0667 49.7 63.1 49.7 63.1 49.7C63.1 49.8333 63 50 62.8 50.2C62.6667 50.3333 62.5667 50.4333 62.5 50.5L62.3 50L62.1 51.8H61.1C61.0333 52 61.2 52.2 61.6 52.4C62 52.5333 61.8333 52.6 61.1 52.6L61.4 52.4L60.3 52.1V52.4L60.6 53.6L59.4 54.4V55.2L57.3 57C57.5667 57 57.7 57.1333 57.7 57.4L55.5 58.7V59.6L54.1 60L54.3 60.2C54.3 60.2 54.2 60.2667 54 60.4C53.8 60.5333 53.8333 60.6667 54.1 60.8L52.9 61.7C53.0333 61.6333 53.0333 61.7333 52.9 62C52.8333 62.2 52.8 62.1667 52.8 61.9L51.6 62.8C51.5333 62.8667 51.4333 62.8667 51.3 62.8C51.1667 62.7333 51.0667 62.7 51 62.7V63.9C50.8667 64.0333 50.7333 64.1 50.6 64.1C50.4667 64.1 50.3333 64.0667 50.2 64C50.1333 63.9333 50.0333 63.9 49.9 63.9C49.7 63.9 49.6333 64.1667 49.7 64.7L48.3 65.1C48.3667 65.1667 48.3333 65.2667 48.2 65.4C48.1333 65.5333 48.1 65.5333 48.1 65.4L47.2 66.4H47C46.5333 66.4 46.2667 66.6 46.2 67C46.2 67.4 45.6333 67.5333 44.5 67.4V68L43.9 67.8L43.7 68.6L42.4 68.8C42.6 68.8667 42.7 69 42.7 69.2C42.7 69.6 42.4667 69.8 42 69.8C41.7333 69.8 41.4333 69.6333 41.1 69.3V70.5L39.9 70.8V71.2L38.3 71.7L37.2 72.9H35.9C36.0333 73.3667 35.7333 73.7333 35 74C34.2667 74.2 33.6333 74.3667 33.1 74.5V75.2C32.2333 75.6667 31.1667 75.9667 29.9 76.1L29.5 76.9L27.9 77.3L27.6 77.8L23.3 79.2L24.4 79.4C22.8667 79.6 21.4333 80.0667 20.1 80.8L20.9 81L20.4 82.6L20.8 82.7V85.5L20.1 85.6C20.1 85.7333 20.2 86 20.4 86.4C20.6667 86.8 20.8 87 20.8 87L20 89.9C20.2 90.3667 20.3667 90.9333 20.5 91.6C20.7 92.2 20.8 92.8 20.8 93.4L20 93.8C20.1333 94.1333 20.2333 94.5667 20.3 95.1C20.4333 95.6333 20.5 96.1667 20.5 96.7C20.5 97.1667 20.4667 97.5 20.4 97.7L20.9 97.9L20.5 101.3L21.3 102.1L20.8 102.4L21.7 105.2L21.2 105.6L22.1 107.4L21.6 107.8L22.5 108.6C22.7667 108.8 22.9 109.167 22.9 109.7C22.9667 110.3 23.0667 110.833 23.2 111.3C23.3333 111.833 23.6667 112.133 24.2 112.2L24 113.4H25L25.6 114.6L27.2 115.4C27.4667 115.333 27.7333 115.267 28 115.2C28.3333 115.2 28.6333 115.2 28.9 115.2C29.6333 115.2 30.2333 115.3 30.7 115.5L32.2 113.9L33.8 114.7C33.3333 115.5 32.3667 116.3 30.9 117.1C29.5 117.9 28.2 118.3 27 118.3C26.3333 118.3 25.7667 118.133 25.3 117.8ZM74.2711 111.9C73.6044 111.9 72.9711 111.867 72.3711 111.8C71.8378 111.733 71.3378 111.633 70.8711 111.5C70.4044 110.767 69.8711 110.033 69.2711 109.3C68.6711 108.633 68.3378 107.833 68.2711 106.9C68.5378 106.633 68.6711 106.3 68.6711 105.9C68.6711 105.7 68.6378 105.5 68.5711 105.3C68.5711 105.1 68.5378 104.9 68.4711 104.7C68.4711 104.567 68.5711 104.5 68.7711 104.5C69.3044 104.5 69.5378 104.267 69.4711 103.8C69.4711 103.4 69.6044 103.067 69.8711 102.8L70.4711 102.9C71.0711 102.433 71.8378 101.767 72.7711 100.9C73.7044 100.033 74.3044 99.2667 74.5711 98.6L75.8711 98.2C75.8711 98.2 75.8044 98.2 75.6711 98.2C75.6044 98.1333 75.6711 98.0667 75.8711 98L79.7711 96V95.4L82.0711 94.6L82.5711 95L82.9711 93.8L84.7711 93.4L85.0711 92.8L88.7711 91.4V91.2L89.7711 91.8L90.3711 90.8L94.5711 89.1L96.1711 89.2L95.7711 88.6C96.9044 88.1333 98.1711 87.6 99.5711 87C101.038 86.3333 102.438 86 103.771 86C103.971 86 104.171 86 104.371 86C104.571 86 104.771 86.0333 104.971 86.1V85H105.071C105.204 85 105.438 85.0333 105.771 85.1C106.104 85.1667 106.138 85 105.871 84.6C107.004 84.4667 108.004 84.1333 108.871 83.6C109.804 83.0667 110.804 82.6333 111.871 82.3L113.471 78.9L113.071 78.6L114.471 75.5C114.404 75.5 114.371 75.5 114.371 75.5V75.3C114.371 75.1667 114.371 75.0333 114.371 74.9C114.371 74.7 114.404 74.5667 114.471 74.5C114.471 74.4333 114.571 74.3667 114.771 74.3C114.971 74.2333 115.071 74.1667 115.071 74.1L114.471 73.9V73.7C114.471 73.4333 114.538 73.1667 114.671 72.9C114.804 72.5667 114.871 72.4 114.871 72.4V71.1H115.471C115.204 70.2333 115.071 69.2333 115.071 68.1L115.871 67.5L115.571 67.6L115.071 67.8V66.9C115.071 66.3667 115.038 65.8667 114.971 65.4C114.904 64.8667 114.804 64.4 114.671 64C114.938 64.0667 115.171 63.9333 115.371 63.6C115.571 63.2667 115.604 63.0333 115.471 62.9C115.404 62.8333 115.238 62.8333 114.971 62.9C114.771 62.9667 114.604 62.9667 114.471 62.9L114.871 62.4C114.671 61.9333 114.438 61.4667 114.171 61C113.904 60.5333 114.071 60.2667 114.671 60.2L113.671 58.9L114.071 58.4L112.871 57.3L112.771 57.2C112.771 57.0667 112.904 56.9333 113.171 56.8C113.438 56.6667 113.604 56.5333 113.671 56.4L111.671 54.1C111.871 54.1 111.971 53.9667 111.971 53.7C111.971 53.3667 111.871 53.0333 111.671 52.7C111.471 52.3 111.271 52 111.071 51.8L109.871 51.4V51.3C109.871 51.1 109.804 50.8667 109.671 50.6C109.604 50.3333 109.538 50.1333 109.471 50L108.471 49.4L109.071 49.2C108.338 49.0667 107.704 48.6667 107.171 48C106.638 47.3333 106.104 46.6333 105.571 45.9C105.104 45.1667 104.538 44.6667 103.871 44.4C103.938 44.4 103.971 44.3333 103.971 44.2C103.971 44.0667 103.838 43.9333 103.571 43.8C103.371 43.6667 103.204 43.6667 103.071 43.8C102.271 43.2667 101.504 42.6333 100.771 41.9C100.104 41.1667 99.4711 40.4 98.8711 39.6L97.7711 39.8C97.5044 39.6667 97.3378 39.5 97.2711 39.3C97.2044 39.0333 97.1044 38.8333 96.9711 38.7H95.7711V38.1L93.9711 37.3L94.2711 37.1C93.5378 37.1667 92.8711 37 92.2711 36.6C91.6711 36.1333 90.9711 35.8667 90.1711 35.8L90.3711 35.6C90.3711 35.4 90.1044 35.3 89.5711 35.3C89.0378 35.3 88.7044 35.2667 88.5711 35.2C88.7711 34.8667 88.5378 34.6333 87.8711 34.5C87.2711 34.3 86.6044 34.1667 85.8711 34.1C85.1378 33.9667 84.6378 33.9 84.3711 33.9C84.3711 33.3667 84.2711 33.1 84.0711 33.1C83.8044 33.1 83.4711 33.4667 83.0711 34.2C82.7378 34.9333 82.6711 35.4667 82.8711 35.8L81.3711 37.6C81.4378 37.6667 81.5378 37.7333 81.6711 37.8C81.8711 37.8 81.9044 37.8333 81.7711 37.9H81.2711C81.1378 38.9 81.0044 39.5333 80.8711 39.8C80.8044 40 80.4044 40.4333 79.6711 41.1L79.7711 42.2C79.5711 42.2667 79.3711 42.4 79.1711 42.6C78.9711 42.7333 78.7711 42.8667 78.5711 43H79.1711L78.5711 45.2H78.0711L76.6711 49.6L76.4711 49.4L76.1711 51.8L75.3711 52L75.9711 52.4L75.3711 52.6C75.4378 53.7333 75.3044 54.7 74.9711 55.5C74.6378 56.3 74.4044 57.2667 74.2711 58.4L73.6711 58.6L73.7711 59.7C73.3711 60.3667 73.1044 61.1333 72.9711 62C72.9044 62.8 72.8044 63.5667 72.6711 64.3L71.8711 65.1C72.0044 65.6333 72.0711 66.0667 72.0711 66.4C72.0711 67.0667 71.9378 67.6333 71.6711 68.1L70.8711 68.3L71.2711 69.9C71.0044 69.9667 70.7378 69.9 70.4711 69.7L69.8711 72.9C70.4044 73.4333 70.5378 73.8 70.2711 74C70.0711 74.1333 70.1378 74.3 70.4711 74.5L70.2711 75.9C70.2044 75.8333 70.1044 75.8 69.9711 75.8C69.7711 75.8 69.6711 76 69.6711 76.4C69.6711 76.6667 69.7044 76.9667 69.7711 77.3C69.8378 77.5667 69.8711 77.7333 69.8711 77.8H69.2711L69.4711 78.1C69.5378 78.3667 69.5711 78.6667 69.5711 79C69.6378 79.3333 69.6711 79.6667 69.6711 80C69.6711 81.4 69.3378 82.4333 68.6711 83.1L69.0711 84.6H68.9711C68.8378 84.6 68.6711 84.5667 68.4711 84.5C68.3378 84.4333 68.2044 84.4333 68.0711 84.5V84.8L68.8711 86.4H68.2711L68.4711 86.6V91.4C68.4044 91.4667 68.3044 91.4 68.1711 91.2C68.0378 90.9333 67.9378 90.8667 67.8711 91C67.8044 91.0667 67.7711 91.2 67.7711 91.4C67.7711 91.6667 67.8711 92.0333 68.0711 92.5C68.2711 92.9 68.4044 93.2 68.4711 93.4L67.6711 93.6L67.8711 93.8V94L68.4711 93.6V94.6L67.8711 94.8L68.4711 95.2C68.4044 95.2667 68.2378 95.3 67.9711 95.3C67.7044 95.2333 67.5378 95.2 67.4711 95.2V95.4H68.4711L67.8711 97C68.5378 97.6667 68.8711 98.4333 68.8711 99.3C68.8711 99.9 68.7378 100.333 68.4711 100.6L68.8711 101C68.8711 101.067 68.8711 101.1 68.8711 101.1C68.9378 101.167 68.9711 101.2 68.9711 101.2C68.9711 101.4 68.8711 101.567 68.6711 101.7C68.5378 101.833 68.4044 101.867 68.2711 101.8L69.0711 102.9L67.6711 103.1C67.1378 102.633 66.7378 102 66.4711 101.2C66.2044 100.4 66.0044 99.6667 65.8711 99L66.4711 98.6C65.9378 98.2 65.5711 97.5 65.3711 96.5C65.2378 95.5 65.1711 94.4667 65.1711 93.4C65.1711 92.8 65.1711 92.2333 65.1711 91.7C65.2378 91.1667 65.2711 90.7333 65.2711 90.4L65.8711 90.2L65.6711 89.6L66.0711 87.8L65.4711 86.2L65.8711 85.8L65.6711 83.4C65.9378 83.7333 66.1378 83.6333 66.2711 83.1C66.4044 82.5667 66.5044 81.9333 66.5711 81.2C66.6378 80.4667 66.6711 80.0333 66.6711 79.9C66.5378 79.5667 66.5711 78.9 66.7711 77.9C66.9711 76.9 67.0711 75.5667 67.0711 73.9C67.2711 73.9667 67.4044 73.6667 67.4711 73C67.5378 72.2667 67.6378 71.4667 67.7711 70.6C67.9044 69.6667 68.0711 69.0333 68.2711 68.7L68.4711 69.1C68.4711 67.5667 68.6711 66.1 69.0711 64.7C69.5378 63.2333 69.8044 61.7667 69.8711 60.3C70.1378 60.6333 70.3378 60.5667 70.4711 60.1C70.6044 59.5667 70.7044 58.9667 70.7711 58.3C70.8378 57.5667 70.8711 57.1333 70.8711 57L71.0711 57.2L71.2711 56.8L72.1711 53H72.4711L73.2711 52L72.6711 50.2C72.7378 50.0667 72.9044 49.5333 73.1711 48.6C73.5044 47.6 73.8711 46.4667 74.2711 45.2C74.6711 43.8667 75.0378 42.7 75.3711 41.7C75.7044 40.6333 75.8711 40 75.8711 39.8L76.6711 39.6L76.9711 37.4L77.2711 37.3L76.7711 37.1H77.2711L77.5711 36.6C77.4378 36 77.5044 35.3 77.7711 34.5C78.0378 33.6333 78.4044 32.9667 78.8711 32.5C78.2044 32.2333 77.3044 32.0667 76.1711 32C75.1044 31.8667 73.9044 31.8 72.5711 31.8C70.9044 31.8 69.2378 31.8667 67.5711 32C65.9711 32.0667 64.6711 32.1 63.6711 32.1C62.9378 32.1 62.4378 32.0333 62.1711 31.9L61.8711 32.5L61.2711 32.3V32.7H58.0711C58.0711 32.7667 58.0711 32.8 58.0711 32.8C58.1378 32.8 58.1711 32.8333 58.1711 32.9C58.1711 33.1667 57.9711 33.3 57.5711 33.3C57.1044 33.3 56.8711 33.1333 56.8711 32.8L57.2711 31.9C59.4044 30.7667 60.9378 30.1 61.8711 29.9C62.8044 29.6333 63.2044 29.3 63.0711 28.9C63.6044 28.7667 64.0711 28.7 64.4711 28.7C64.6711 28.7 64.8711 28.7333 65.0711 28.8C65.2711 28.8 65.4711 28.8333 65.6711 28.9L66.4711 28.3L66.2711 27.9L69.0711 27.3L69.2711 27.9C69.8711 27.2333 70.6378 26.9 71.5711 26.9C72.2378 26.9 72.8044 27.0333 73.2711 27.3L74.4711 26.5C74.5378 26.9 75.0044 27.1 75.8711 27.1C76.5378 27.1 77.2711 27.0667 78.0711 27C78.8711 26.8667 79.6044 26.8 80.2711 26.8C80.8044 26.8 81.1711 26.8333 81.3711 26.9C81.5044 26.3 81.8044 25.6667 82.2711 25C82.7378 24.2667 83.3044 23.9 83.9711 23.9C84.3044 23.9667 84.5378 24.4 84.6711 25.2C84.8044 26 84.7044 26.3 84.3711 26.1L85.1711 27.3C85.5044 27.5667 85.9044 27.7667 86.3711 27.9C86.8378 27.9667 87.3044 28 87.7711 28C88.1044 28 88.4044 28 88.6711 28C88.9378 28 89.1711 27.9667 89.3711 27.9C89.3044 28.1667 89.4378 28.3333 89.7711 28.4C90.1044 28.4667 90.3044 28.3667 90.3711 28.1C92.3711 28.6333 94.3044 29.4667 96.1711 30.6C98.0378 31.6667 99.9044 32.5 101.771 33.1L101.071 33.3C102.071 33.1667 102.971 33.4 103.771 34C104.638 34.6 105.471 35.2667 106.271 36C107.071 36.7333 107.904 37.2667 108.771 37.6L108.471 38.9C108.938 38.9 109.338 38.7333 109.671 38.4L110.271 40C110.671 40.2 111.071 40.5333 111.471 41C111.938 41.4667 112.338 41.5333 112.671 41.2L114.871 43.8L114.671 44.2L116.371 45.7C116.371 46.5667 116.738 47.1333 117.471 47.4L118.271 49.2L118.471 49C118.938 49.6667 119.404 50.4667 119.871 51.4C120.404 52.3333 120.671 53.2333 120.671 54.1H121.171L121.971 56.4L121.671 57.8L122.471 59.2L122.271 60.3L123.071 61L122.771 63.3C122.971 63.9 123.071 64.5333 123.071 65.2C123.071 65.9333 122.971 66.3 122.771 66.3C123.104 66.4333 123.271 66.7 123.271 67.1C123.271 67.4333 123.104 67.7667 122.771 68.1V71.1L121.771 72.1H121.871C122.004 72.1 122.138 72.1667 122.271 72.3C122.404 72.3667 122.504 72.4333 122.571 72.5C122.438 73.7 122.171 74.8667 121.771 76C121.371 77.0667 120.904 78.1667 120.371 79.3C120.771 79.3 121.171 79.3 121.571 79.3C122.038 79.2333 122.438 79.1667 122.771 79.1L123.171 78.3L126.771 77.3C126.771 77.6333 126.871 77.8 127.071 77.8L124.771 78.9C125.238 79.1 125.204 79.3333 124.671 79.6C124.138 79.8 123.504 80 122.771 80.2C122.104 80.4 121.671 80.5667 121.471 80.7C120.804 81.5 119.871 82.0667 118.671 82.4L118.471 83.2L117.071 84.2L117.171 85C116.838 86.2667 116.071 87.1333 114.871 87.6V88C114.404 88.4667 113.871 89 113.271 89.6C112.738 90.2 112.404 90.8667 112.271 91.6L111.071 92L110.871 93C110.471 93.0667 110.104 93.3333 109.771 93.8C109.438 94.2 109.204 94.6 109.071 95C108.871 94.9333 108.671 94.9 108.471 94.9C108.204 94.9 108.071 95.0333 108.071 95.3C108.138 95.5667 107.804 95.8 107.071 96L106.271 95.6V95.8L106.671 97C106.471 97.0667 106.238 97.0667 105.971 97C105.704 96.8667 105.471 96.8667 105.271 97V97.4C105.471 97.4667 105.671 97.5 105.871 97.5C106.071 97.4333 106.104 97.4333 105.971 97.5H105.871L103.371 99V99.8C102.171 100.133 101.204 100.6 100.471 101.2C99.8044 101.8 99.1044 102.367 98.3711 102.9C97.6378 103.433 96.5378 103.767 95.0711 103.9L94.9711 104.7L92.9711 105.2L93.1711 105.9C92.7711 106.167 92.1711 106.4 91.3711 106.6C90.5711 106.867 89.9044 107.067 89.3711 107.2C88.8378 107.333 88.7711 107.4 89.1711 107.4H89.2711C89.4044 107.4 89.1711 107.533 88.5711 107.8C87.9711 108.133 87.5044 108.367 87.1711 108.5L86.7711 108.2L85.5711 108.7V109.1C84.5711 109.967 82.9378 110.633 80.6711 111.1C78.4044 111.633 76.2711 111.9 74.2711 111.9ZM74.4711 106.7C74.3378 106.5 74.3378 106.233 74.4711 105.9C74.8711 105.9 75.8044 105.633 77.2711 105.1C78.8044 104.567 80.4711 104 82.2711 103.4C84.0711 102.867 85.5378 102.6 86.6711 102.6C86.6044 102.467 86.5711 102.3 86.5711 102.1C86.5711 101.9 86.9044 101.7 87.5711 101.5L87.3711 101.8C87.2378 101.933 87.3711 102 87.7711 102C87.9711 101.333 88.6378 100.733 89.7711 100.2C90.9044 99.7333 92.0044 99.3333 93.0711 99C94.2044 98.7333 94.7711 98.6 94.7711 98.6C94.4378 98.4667 94.2378 98.2667 94.1711 98L94.2711 97.8L95.7711 97.5V97H96.5711V96.4H97.7711C97.8378 96 98.3378 95.4333 99.2711 94.7C100.271 93.9 101.304 93.2 102.371 92.6C103.438 91.9333 104.138 91.6667 104.471 91.8C104.471 91.3333 104.504 90.9667 104.571 90.7C104.704 90.3667 105.004 90.1333 105.471 90C105.604 90.1333 105.804 90.2667 106.071 90.4C106.338 89.4 106.571 88.8 106.771 88.6C106.971 88.3333 107.204 88.2 107.471 88.2C107.738 88.2 108.071 88.0667 108.471 87.8L107.971 87.6C108.104 87.5333 108.271 87.4 108.471 87.2L108.271 87L108.471 86.6H108.271C107.804 87 107.204 87.3 106.471 87.5C105.738 87.7 105.071 87.8 104.471 87.8L104.271 88.4L102.671 89.1L101.771 88.8L101.471 89.4C101.004 89.6667 100.538 89.8333 100.071 89.9C99.6044 89.9 99.1044 89.9 98.5711 89.9V90C98.5711 90.4667 98.4378 90.7333 98.1711 90.8C97.9044 90.8 97.6044 90.8 97.2711 90.8C96.9378 90.8 96.6378 91.0667 96.3711 91.6L95.5711 91.4C95.1711 91.8 94.8711 92.0667 94.6711 92.2C94.5378 92.2667 94.1378 92.3333 93.4711 92.4L93.7711 91.6H93.4711C93.4044 92 93.1711 92.4667 92.7711 93C91.9044 93.0667 91.1378 93.3333 90.4711 93.8C89.8711 94.2667 89.1711 94.4667 88.3711 94.4L87.7711 95.2C87.0378 95.1333 86.5044 95.3 86.1711 95.7C85.8378 96.0333 85.3711 96.3333 84.7711 96.6C84.7044 96.4 84.6378 96.3 84.5711 96.3C84.5711 96.3 84.5044 96.2667 84.3711 96.2C84.3711 96.7333 84.2378 97.0333 83.9711 97.1C83.7711 97.1667 83.5044 97.4 83.1711 97.8L82.1711 97.5L82.0711 98.6C81.0711 98.8 80.2044 99.2333 79.4711 99.9C78.7378 100.633 78.0044 101.3 77.2711 101.9C76.6044 102.567 75.8044 102.967 74.8711 103.1L74.2711 102.8C74.0044 103.333 73.6711 103.8 73.2711 104.2C72.8711 104.6 72.6044 105.133 72.4711 105.8C72.7378 105.867 72.8044 105.933 72.6711 106C72.6044 106.133 72.5378 106.333 72.4711 106.6C72.8044 106.6 73.1378 106.6 73.4711 106.6C73.8044 106.6 74.1378 106.633 74.4711 106.7Z" fill="url(#paint1_linear_1610_1047)"/>
<defs>
<linearGradient id="paint0_linear_1610_1047" x1="124" y1="69.5" x2="186.772" y2="69.5" gradientUnits="userSpaceOnUse">
<stop stop-color="#810101"/>
<stop offset="1" stop-color="#E70202"/>
</linearGradient>
<linearGradient id="paint1_linear_1610_1047" x1="2" y1="69.5" x2="132.774" y2="69.5" gradientUnits="userSpaceOnUse">
<stop stop-color="#810101"/>
<stop offset="1" stop-color="#E70202"/>
</linearGradient>
</defs>
</svg>
